<svg xmlns="http://www.w3.org/2000/svg" viewBox="0 0 512.655 543.64"><defs><clipPath id="openmenu"><path fill="#fff" d="M544 144h512v414H544z"/></clipPath></defs><path fill="#fff" d="m138.6 541-.33-115.5h-32.01l-36.63 61.545L32.01 425.5H0V541h35.475v-50.82l25.08 40.42h17.16l25.08-42.24.33 52.64Zm57.095-29.37v-15.18h48.84V468.4h-48.84v-13.53h55.6V425.5H157.41V541h96.03v-29.37Zm148.66-86.13v52.47l-43.89-52.47h-32.01V541h37.95v-52.47l43.89 52.47h32.01V425.5Zm112.04 118.14c35.475 0 56.265-19.965 56.265-54.615V425.5h-38.285v62.37c0 17.655-6.765 24.255-17.655 24.255s-17.655-6.6-17.655-24.255V425.5h-38.94v63.525c0 34.65 20.79 54.615 56.27 54.615Z"/><g clip-path="url(#openmenu)" transform="translate(-543.405 -144)"><path fill="#fff" d="M893.3 146.514a23.983 23.983 0 0 1 34.7 21.5v208a26.932 26.932 0 0 1-.3 4 25.955 25.955 0 0 1 .3 4v92.8c76.5 16.6 128 47.7 128 83.2 0 53-114.6 96-256 96s-256-43-256-96 114.6-96 256-96a657.784 657.784 0 0 1 80 4.8v-78l-194.7-97.4a24.028 24.028 0 0 1 0-43l208-104ZM768 560.014c0 17.7 28.7 32 64 32s64-14.3 64-32-28.7-32-64-32-64 14.3-64 32Z"/></g><path fill="#91b508" d="M169.55 132.385a6 6 0 0 1 0-10.769l157.4-77.365a6 6 0 0 1 8.645 5.384v154.73a6 6 0 0 1-8.647 5.385Z"/></svg>