<svg xmlns="http://www.w3.org/2000/svg" viewBox="0 0 516.434 534.384"><defs><clipPath id="closemenu"><path fill="#fff" d="M544 144h512v414H544Z"/></clipPath></defs><g clip-path="url(#closemenu)" transform="translate(-542.726 -144)"><path fill="#fff" d="M893.3 146.514a23.983 23.983 0 0 1 34.7 21.5v208a26.925 26.925 0 0 1-.3 4 25.949 25.949 0 0 1 .3 4v92.8c76.5 16.6 128 47.7 128 83.2 0 53-114.6 96-256 96s-256-43-256-96 114.6-96 256-96a657.8 657.8 0 0 1 80 4.8v-78l-194.7-97.4a24.028 24.028 0 0 1 0-43l208-104ZM768 560.014c0 17.7 28.7 32 64 32s64-14.3 64-32-28.7-32-64-32-64 14.3-64 32Z"/></g><path fill="#039c3d" d="M170.229 132.385a6 6 0 0 1 0-10.769l157.4-77.365a6 6 0 0 1 8.645 5.384v154.73a6 6 0 0 1-8.647 5.385Z"/><path fill="#fff" d="M58.11 534.384c20.413 0 36.505-7.45 46.786-20.86l-22.2-19.817c-6.109 7.748-13.41 12.218-22.8 12.218-14.6 0-24.436-10.132-24.436-26.075s9.834-26.075 24.436-26.075c9.387 0 16.688 4.47 22.8 12.218l22.2-19.817c-10.281-13.41-26.373-20.86-46.786-20.86-33.525 0-58.11 22.5-58.11 54.534s24.585 54.534 58.11 54.534ZM115.028 532h82.251v-27.267h-47.087V427.7h-35.164Zm145.126 2.384c33.972 0 58.855-22.946 58.855-54.534s-24.883-54.534-58.855-54.534-58.855 22.946-58.855 54.534 24.88 54.534 58.855 54.534Zm0-28.459c-12.963 0-23.393-9.834-23.393-26.075s10.43-26.075 23.393-26.075 23.393 9.834 23.393 26.075-10.43 26.075-23.393 26.075Zm110.558 28.459c32.333 0 48.574-16.092 48.574-35.164 0-38.442-57.663-28.012-57.663-40.528 0-3.576 3.278-6.556 13.559-6.556 9.089 0 18.774 2.533 29.055 7.748l10.579-25.484c-10.877-6.109-25.33-9.089-39.336-9.089-32.333 0-48.574 15.794-48.574 35.164 0 38.889 57.663 28.31 57.663 41.422 0 3.576-3.576 5.662-13.559 5.662a71.557 71.557 0 0 1-34.419-9.536l-11.324 25.633c10.43 6.407 28.012 10.728 45.445 10.728Zm93.572-28.906V491.77h44.1v-25.33h-44.1v-12.218h50.213V427.7h-84.781V532h86.718v-26.522Z"/></svg>