<svg decoding="async" loading="lazy" xmlns="http://www.w3.org/2000/svg" xmlns:xlink="http://www.w3.org/1999/xlink" style="display: none;">
    <symbol id="arrow-down" viewBox="0 0 29.796 33.394"><path d="m0 19.48 13.919 13.914h1.968L29.796 19.48l-1.967-1.968-11.541 11.539V0h-2.783v29.053L1.967 17.51Z"/></symbol>
    <symbol id="arrow-right" viewBox="0 0 32.878 31.053"><path d="m19.179 31.053 13.7-14.5v-2.051l-13.7-14.5-1.937 2.051L28.6 14.078H0v2.9h28.6L17.239 29.004Z"/></symbol>
    <symbol id="chevron-left" viewBox="0 0 320 512"><path d="M206.7 464.6l-183.1-191.1C18.22 267.1 16 261.1 16 256s2.219-11.97 6.688-16.59l183.1-191.1c9.152-9.594 24.34-9.906 33.9-.7187c9.625 9.125 9.938 24.37 .7187 33.91L73.24 256l168 175.4c9.219 9.5 8.906 24.78-.7187 33.91C231 474.5 215.8 474.2 206.7 464.6z"/></symbol>
    <symbol id="chevron-right" viewBox="0 0 320 512"><path d="M113.3 47.41l183.1 191.1c4.469 4.625 6.688 10.62 6.688 16.59s-2.219 11.97-6.688 16.59l-183.1 191.1c-9.152 9.594-24.34 9.906-33.9 .7187c-9.625-9.125-9.938-24.38-.7187-33.91l168-175.4L78.71 80.6c-9.219-9.5-8.906-24.78 .7187-33.91C88.99 37.5 104.2 37.82 113.3 47.41z"/></symbol>
    <symbol id="location-dot" viewBox="0 0 384 512"><path d="M272 192C272 236.2 236.2 272 192 272C147.8 272 112 236.2 112 192C112 147.8 147.8 112 192 112C236.2 112 272 147.8 272 192zM192 240C218.5 240 240 218.5 240 192C240 165.5 218.5 144 192 144C165.5 144 144 165.5 144 192C144 218.5 165.5 240 192 240zM384 192C384 279.4 267 435 215.7 499.2C203.4 514.5 180.6 514.5 168.3 499.2C116.1 435 0 279.4 0 192C0 85.96 85.96 0 192 0C298 0 384 85.96 384 192H384zM192 32C103.6 32 32 103.6 32 192C32 207.6 37.43 229 48.56 255.4C59.47 281.3 74.8 309.4 92.14 337.5C126.2 392.8 166.6 445.7 192 477.6C217.4 445.7 257.8 392.8 291.9 337.5C309.2 309.4 324.5 281.3 335.4 255.4C346.6 229 352 207.6 352 192C352 103.6 280.4 32 192 32z"/></symbol>
    <symbol id="phone" viewBox="0 0 512 512"><path d="M484.6 330.6C484.6 330.6 484.6 330.6 484.6 330.6l-101.8-43.66c-18.5-7.688-40.2-2.375-52.75 13.08l-33.14 40.47C244.2 311.8 200.3 267.9 171.6 215.2l40.52-33.19c15.67-12.92 20.83-34.16 12.84-52.84L181.4 27.37C172.7 7.279 150.8-3.737 129.6 1.154L35.17 23.06C14.47 27.78 0 45.9 0 67.12C0 312.4 199.6 512 444.9 512c21.23 0 39.41-14.44 44.17-35.13l21.8-94.47C515.7 361.1 504.7 339.3 484.6 330.6zM457.9 469.7c-1.375 5.969-6.844 10.31-12.98 10.31c-227.7 0-412.9-185.2-412.9-412.9c0-6.188 4.234-11.48 10.34-12.88l94.41-21.91c1-.2344 2-.3438 2.984-.3438c5.234 0 10.11 3.094 12.25 8.031l43.58 101.7C197.9 147.2 196.4 153.5 191.8 157.3L141.3 198.7C135.6 203.4 133.8 211.4 137.1 218.1c33.38 67.81 89.11 123.5 156.9 156.9c6.641 3.313 14.73 1.531 19.44-4.219l41.39-50.5c3.703-4.563 10.16-6.063 15.5-3.844l101.6 43.56c5.906 2.563 9.156 8.969 7.719 15.22L457.9 469.7z"/></symbol>
    <symbol id="paper-plane-top" viewBox="0 0 512 512"><path d="M492.6 226.6L44.6 34.59C40.54 32.85 36.26 31.1 32.02 31.1c-8.623 0-17.1 3.499-23.3 10.05C-.4983 51.81-2.623 66.3 3.377 78.31L96 256l-92.62 177.7c-6 12.02-3.875 26.5 5.344 36.27c6.188 6.547 14.66 10.05 23.28 10.05c4.25 0 8.531-.8438 12.59-2.594L492.6 285.4c11.78-5.031 19.41-16.61 19.41-29.41C511.1 243.2 504.4 231.6 492.6 226.6zM31.98 64.03C31.99 64.01 31.96 64.04 31.98 64.03L442.7 240H123.7L31.98 64.03zM31.75 448.5L123.7 272h318.1L31.75 448.5z"/></symbol>
    <symbol id="facebook" viewBox="0 0 26.921 26.921"><path d="M21.874 0a4.864 4.864 0 0 1 3.567 1.481 4.858 4.858 0 0 1 1.481 3.567v16.826a5.055 5.055 0 0 1-5.048 5.048h-3.295V16.493h3.488l.526-4.067h-4.014V9.832a2.246 2.246 0 0 1 .412-1.472 2.045 2.045 0 0 1 1.6-.491l2.138-.017V4.224a23.493 23.493 0 0 0-3.12-.158 5.206 5.206 0 0 0-3.812 1.4 5.3 5.3 0 0 0-1.428 3.961v3h-3.503v4.067h3.506v10.427H5.048a4.864 4.864 0 0 1-3.567-1.481A4.858 4.858 0 0 1 0 21.874V5.048a4.864 4.864 0 0 1 1.481-3.567A4.858 4.858 0 0 1 5.048 0Z"/></symbol>
    <symbol id="instagram" viewBox="0 0 26.896 26.895"><path d="M8.405 13.447A5.022 5.022 0 0 1 13.448 8.4a5.022 5.022 0 0 1 5.043 5.043 5.022 5.022 0 0 1-5.043 5.043 5.022 5.022 0 0 1-5.043-5.039Zm18.49-1.681v11.767a3.363 3.363 0 0 1-3.362 3.367H3.361a3.241 3.241 0 0 1-2.376-.99 3.233 3.233 0 0 1-.984-2.377V3.362A3.241 3.241 0 0 1 .985.985 3.236 3.236 0 0 1 3.362 0h20.172a3.241 3.241 0 0 1 2.377.985 3.236 3.236 0 0 1 .985 2.377V8.4h-6.724a8.6 8.6 0 0 0-2.942-2.456 8.346 8.346 0 0 0-7.565 0A8.6 8.6 0 0 0 6.724 8.4H0v3.362h5.2a9.093 9.093 0 0 0-.158 1.681 8.2 8.2 0 0 0 1.129 4.215 8.409 8.409 0 0 0 3.06 3.06 8.433 8.433 0 0 0 8.431 0 8.394 8.394 0 0 0 3.06-3.06 8.2 8.2 0 0 0 1.129-4.215 9.093 9.093 0 0 0-.158-1.681h5.2Z"/></symbol>
    <symbol id="twitter" viewBox="0 0 26.61 26.547"><path d="M20.877 9.722a6.726 6.726 0 0 0 1.744-1.872 7.6 7.6 0 0 1-1.932.561 3.875 3.875 0 0 0 1.5-1.994 7.607 7.607 0 0 1-2.306.873 2.962 2.962 0 0 0-1.932-1.028 3.987 3.987 0 0 0-2.212.312 3.612 3.612 0 0 0-1.651 1.558 3.184 3.184 0 0 0-.312 2.4A10.676 10.676 0 0 1 6.42 6.85a3.49 3.49 0 0 0-.28 2.711 3.233 3.233 0 0 0 1.339 2.026 4.6 4.6 0 0 1-1.5-.436 3.566 3.566 0 0 0 2.742 3.552 3.635 3.635 0 0 1-1.5.062 3.527 3.527 0 0 0 3.3 2.492 6.082 6.082 0 0 1-2.421 1.22 6.932 6.932 0 0 1-2.805.218 9.906 9.906 0 0 0 5.733 1.621 9.853 9.853 0 0 0 7.072-3.085 10.778 10.778 0 0 0 2.777-7.509ZM23.93 0a2.586 2.586 0 0 1 1.9.779 2.511 2.511 0 0 1 .778 1.838V23.93a2.512 2.512 0 0 1-.779 1.838 2.589 2.589 0 0 1-1.9.779H2.679a2.586 2.586 0 0 1-1.9-.779A2.511 2.511 0 0 1 0 23.93V2.617A2.512 2.512 0 0 1 .779.779 2.589 2.589 0 0 1 2.679 0Z"/></symbol>
</svg>