<svg width="40" height="40" viewBox="0 0 40 40" fill="none" xmlns="http://www.w3.org/2000/svg">
<g id="thumbs-down">
<path id="Vector" d="M28.3334 21.6669L21.6667 36.6669C20.3406 36.6669 19.0689 36.1402 18.1312 35.2025C17.1935 34.2648 16.6667 32.993 16.6667 31.6669V25.0003H7.23338C6.7502 25.0057 6.27161 24.9061 5.83076 24.7082C5.38992 24.5104 4.99736 24.2191 4.68029 23.8544C4.36321 23.4898 4.12921 23.0606 3.99448 22.5965C3.85976 22.1325 3.82754 21.6447 3.90005 21.1669L6.20005 6.16694C6.32059 5.3721 6.72433 4.6476 7.33687 4.12693C7.94942 3.60627 8.7295 3.32452 9.53338 3.33361H28.3334M28.3334 21.6669V3.33361M28.3334 21.6669H32.7834C33.7267 21.6836 34.6432 21.3534 35.3591 20.7389C36.0749 20.1244 36.5403 19.2685 36.6667 18.3336V6.66694C36.5403 5.73204 36.0749 4.87611 35.3591 4.26164C34.6432 3.64717 33.7267 3.31693 32.7834 3.33361H28.3334" stroke="#4682A9" stroke-width="2" stroke-linecap="round" stroke-linejoin="round"/>
</g>
</svg>
