<svg width="40" height="40" viewBox="0 0 40 40" fill="none" xmlns="http://www.w3.org/2000/svg">
<g id="thumbs-up">
<path id="Vector" d="M11.6663 18.333L18.333 3.33301C19.6591 3.33301 20.9309 3.85979 21.8685 4.79747C22.8062 5.73516 23.333 7.00693 23.333 8.33301V14.9997H32.7663C33.2495 14.9942 33.7281 15.0938 34.169 15.2917C34.6098 15.4896 35.0024 15.7809 35.3194 16.1455C35.6365 16.5102 35.8705 16.9394 36.0052 17.4034C36.14 17.8675 36.1722 18.3553 36.0997 18.833L33.7997 33.833C33.6791 34.6278 33.2754 35.3524 32.6629 35.873C32.0503 36.3937 31.2702 36.6754 30.4663 36.6663H11.6663M11.6663 18.333V36.6663M11.6663 18.333H6.66634C5.78229 18.333 4.93444 18.6842 4.30932 19.3093C3.6842 19.9344 3.33301 20.7823 3.33301 21.6663V33.333C3.33301 34.2171 3.6842 35.0649 4.30932 35.69C4.93444 36.3152 5.78229 36.6663 6.66634 36.6663H11.6663" stroke="#4682A9" stroke-width="2" stroke-linecap="round" stroke-linejoin="round"/>
</g>
</svg>
