<svg width="50" height="50" viewBox="0 0 50 50" fill="none" xmlns="http://www.w3.org/2000/svg">
<g id="youtube">
<path id="Vector" d="M45.4971 10.7489C46.2067 11.4805 46.7107 12.3864 46.9582 13.3752C47.6191 17.0391 47.9399 20.7563 47.9166 24.4793C47.9297 28.1467 47.609 31.8076 46.9582 35.4168C46.7107 36.4056 46.2067 37.3115 45.4971 38.0431C44.7874 38.7747 43.8973 39.306 42.9166 39.5835C39.3332 40.5418 24.9999 40.5418 24.9999 40.5418C24.9999 40.5418 10.6666 40.5418 7.08322 39.5835C6.12243 39.3206 5.24568 38.8144 4.53769 38.1137C3.82969 37.413 3.31439 36.5415 3.04156 35.5835C2.38065 31.9195 2.05985 28.2023 2.08322 24.4793C2.06496 20.7841 2.38575 17.0951 3.04156 13.4585C3.28903 12.4698 3.79305 11.5639 4.50269 10.8323C5.21234 10.1007 6.10249 9.5693 7.08322 9.29183C10.6666 8.3335 24.9999 8.3335 24.9999 8.3335C24.9999 8.3335 39.3332 8.3335 42.9166 9.2085C43.8973 9.48596 44.7874 10.0173 45.4971 10.7489Z" stroke="#1F2223" stroke-width="2" stroke-linecap="round" stroke-linejoin="round"/>
<path id="Vector_2" d="M32.2917 24.479L20.3125 31.2915V17.6665L32.2917 24.479Z" stroke="#1F2223" stroke-width="2" stroke-linecap="round" stroke-linejoin="round"/>
</g>
</svg>
